<svg xmlns="http://www.w3.org/2000/svg" fill="none" viewBox="67.938 26.120092378752886 272.55600000000004 147.87990762124713" style="max-height: 500px" width="272.55600000000004" height="147.87990762124713">
<path fill="#810055" d="M69.8595 27.8H79.9395V56.6H115.652V27.8H125.732V95H115.652V65.72H79.9395V95H69.8595V27.8ZM164.592 95.96C159.92 95.96 155.632 94.84 151.728 92.6C147.888 90.36 144.816 87.32 142.512 83.48C140.272 79.576 139.152 75.288 139.152 70.616C139.152 65.944 140.272 61.688 142.512 57.848C144.816 53.944 147.888 50.872 151.728 48.632C155.632 46.328 159.92 45.176 164.592 45.176C169.264 45.176 173.52 46.328 177.36 48.632C181.264 50.872 184.336 53.944 186.576 57.848C188.88 61.688 190.032 65.944 190.032 70.616C190.032 75.288 188.88 79.576 186.576 83.48C184.336 87.32 181.264 90.36 177.36 92.6C173.52 94.84 169.264 95.96 164.592 95.96ZM148.56 70.616C148.56 73.752 149.264 76.6 150.672 79.16C152.144 81.72 154.096 83.768 156.528 85.304C158.96 86.776 161.648 87.512 164.592 87.512C167.536 87.512 170.224 86.776 172.656 85.304C175.088 83.768 177.008 81.72 178.416 79.16C179.888 76.6 180.624 73.752 180.624 70.616C180.624 67.48 179.888 64.632 178.416 62.072C177.008 59.448 175.088 57.4 172.656 55.928C170.224 54.392 167.536 53.624 164.592 53.624C161.648 53.624 158.96 54.392 156.528 55.928C154.096 57.4 152.144 59.448 150.672 62.072C149.264 64.632 148.56 67.48 148.56 70.616ZM202.2 46.136H211.8V50.84C215.448 47.064 220.024 45.176 225.528 45.176C228.792 45.176 231.736 45.912 234.36 47.384C236.984 48.792 239.064 50.776 240.6 53.336C244.696 47.896 250.2 45.176 257.112 45.176C260.696 45.176 263.864 45.976 266.616 47.576C269.432 49.176 271.608 51.448 273.144 54.392C274.68 57.272 275.448 60.568 275.448 64.28V95H265.848V65.912C265.848 62.136 264.824 59.128 262.776 56.888C260.792 54.648 258.072 53.528 254.616 53.528C249.816 53.528 246.008 55.736 243.192 60.152C243.448 61.944 243.576 63.32 243.576 64.28V95H234.072V65.912C234.072 62.136 233.048 59.128 231 56.888C228.952 54.648 226.232 53.528 222.84 53.528C218.168 53.528 214.488 55.512 211.8 59.48V95H202.2V46.136ZM312.323 95.96C307.395 95.96 303.011 94.872 299.171 92.696C295.395 90.52 292.483 87.512 290.435 83.672C288.387 79.768 287.363 75.416 287.363 70.616C287.363 65.752 288.419 61.4 290.531 57.56C292.643 53.72 295.587 50.712 299.363 48.536C303.139 46.296 307.363 45.176 312.035 45.176C316.579 45.176 320.611 46.232 324.131 48.344C327.715 50.456 330.499 53.4 332.483 57.176C334.467 60.952 335.459 65.24 335.459 70.04V72.824H296.675C296.931 77.112 298.531 80.696 301.475 83.576C304.419 86.392 308.003 87.8 312.227 87.8C315.427 87.8 318.275 87.032 320.771 85.496C323.267 83.896 325.251 81.688 326.723 78.872L334.787 82.328C332.675 86.744 329.667 90.136 325.763 92.504C321.859 94.808 317.379 95.96 312.323 95.96ZM326.147 66.104C325.635 62.264 324.099 59.16 321.539 56.792C318.979 54.424 315.811 53.24 312.035 53.24C308.131 53.24 304.771 54.456 301.955 56.888C299.203 59.32 297.507 62.392 296.867 66.104H326.147Z"/>
<path fill="#810055" d="M218.22 152.136C217.292 152.136 216.524 151.936 215.916 151.536L216.732 149.616C217.148 149.872 217.58 150 218.028 150C218.956 150 219.66 149.408 220.14 148.224L220.668 147.024L215.772 134.784H218.412L221.988 144.096L225.924 134.784H228.516L222.612 148.512C222.052 149.808 221.428 150.736 220.74 151.296C220.052 151.856 219.212 152.136 218.22 152.136Z"/>
<path fill="#810055" d="M208.072 147.192C207.4 147.192 206.744 147.088 206.104 146.88C205.48 146.656 204.904 146.344 204.376 145.944V147H202V130.2L204.4 129.744V135.936C205.424 135.04 206.664 134.592 208.12 134.592C209.256 134.592 210.296 134.872 211.24 135.432C212.184 135.992 212.928 136.752 213.472 137.712C214.016 138.672 214.288 139.728 214.288 140.88C214.288 142.048 214.016 143.112 213.472 144.072C212.928 145.032 212.176 145.792 211.216 146.352C210.272 146.912 209.224 147.192 208.072 147.192ZM204.4 143.664C204.8 144.128 205.296 144.488 205.888 144.744C206.496 145 207.136 145.128 207.808 145.128C208.576 145.128 209.272 144.944 209.896 144.576C210.536 144.208 211.032 143.704 211.384 143.064C211.752 142.408 211.936 141.688 211.936 140.904C211.936 140.12 211.752 139.408 211.384 138.768C211.032 138.112 210.536 137.6 209.896 137.232C209.272 136.864 208.576 136.68 207.808 136.68C207.12 136.68 206.48 136.808 205.888 137.064C205.296 137.32 204.8 137.68 204.4 138.144V143.664Z"/>
<path fill="#810055" d="M333.733 133.531C332.965 133.531 330.387 134.798 327.142 138.321C323.897 141.843 320.03 146.564 316.507 146.564C315.675 146.669 314.916 146.079 314.811 145.246C314.797 145.136 314.797 145.027 314.806 144.917C314.806 144.313 315.277 143.75 316.214 143.508C319.532 142.524 324.733 138.197 324.733 135.256C324.839 134.487 324.299 133.778 323.531 133.673C323.463 133.664 323.394 133.659 323.33 133.659C321.923 133.659 317.891 134.327 312.9 140.301C312.526 140.855 311.95 141.248 311.296 141.399C310.825 141.399 310.277 140.521 310.277 138.76V138.224C310.432 135.896 311.575 134.945 311.575 134.185C311.575 133.659 311.356 133.481 310.739 133.481C309.331 133.481 306.598 136.838 306.109 136.838C305.62 136.838 305.245 135.297 304.788 134.73C304.125 133.851 303.22 133.627 300.642 133.627C299.349 133.627 298.613 133.741 297.452 133.741C296.136 133.741 295.834 133.687 295.587 133.11C295.341 132.534 291.511 122.31 282.744 122.31C280.788 122.31 278.731 123.17 278.731 125.828C278.731 128.485 280.313 132.081 286.949 134.268C287.118 134.322 287.278 134.345 287.278 134.478C287.278 134.762 284.143 138.993 281.318 139.492C281.049 139.528 280.802 139.336 280.765 139.066C280.761 139.03 280.761 138.998 280.765 138.961C281.008 138.151 281.154 137.314 281.209 136.472C281.209 135.123 280.793 133.229 278.242 133.229C275.692 133.229 272.945 134.364 265.802 141.271L265.02 142.026C264.54 142.483 264.014 142.9 263.452 143.256C262.986 143.604 262.428 143.801 261.848 143.819C261.715 143.819 261.629 143.673 261.93 143.233L262.195 142.858C262.506 142.424 263.046 141.678 263.672 140.818C265.079 138.86 266.935 136.367 267.424 135.809C268.219 134.903 268.631 134.46 268.631 134.158C268.631 133.856 268.132 133.526 267.529 133.526C265.911 133.677 264.394 134.364 263.215 135.484C262.625 136.061 261.007 137.749 258.996 139.707C258.47 140.214 257.908 140.74 257.332 141.266C254.069 144.272 250.303 147.282 248.246 147.282C247.424 147.282 246.651 146.733 246.651 145.411C246.651 144.537 247.803 141.706 250.079 138.494C250.367 138.087 250.678 137.671 250.998 137.255C252.053 135.905 253.219 134.638 254.476 133.476C259.668 128.687 265.719 126.349 269.426 126.349C270.674 126.381 271.912 126.496 273.142 126.701C273.274 126.747 273.421 126.683 273.48 126.555C273.594 126.363 276.396 121.386 276.396 121.386C276.396 121.386 276.396 121.244 276.346 121.226C275.834 121.066 275.294 120.988 274.755 121.002C270.537 121.002 261.4 123.11 252.223 129.775C249.901 131.445 247.716 133.298 245.687 135.311C245.385 135.608 245.102 135.901 244.828 136.198C240.792 140.489 238.932 144.373 238.932 147.135C238.932 150.653 242.222 151.097 243.941 151.097C248.488 151.097 250.504 148.988 251.4 148.988C252.296 148.988 250.865 151.097 249.517 151.971C238.255 158.8 229 164.669 229 170.09C229 172.547 231.262 172.707 232.99 172.707C234.718 172.707 243.141 171.632 256.034 151.605C256.638 150.662 257.639 150.123 258.585 149.432C259.535 148.741 262.611 146.5 263.224 146.49C263.836 146.481 263.809 146.756 263.786 147.026C263.557 147.785 263.407 148.563 263.343 149.354C263.343 150.415 264.417 151.655 266.153 151.655C270.075 151.655 272.936 148.842 275.29 146.335C276.359 145.059 277.571 143.901 278.896 142.895C279.321 142.593 279.828 142.419 280.349 142.396C280.756 142.396 280.912 142.57 280.912 142.831C280.912 142.872 280.912 142.913 280.912 142.959C280.532 144.373 280.276 145.813 280.144 147.273V147.401C280.144 149.089 280.697 151.504 284.623 151.504C286.794 151.504 288.777 150.338 290.468 148.64C292.274 146.733 293.736 144.523 294.792 142.113C295.619 140.466 296.136 138.682 296.319 136.852C296.287 136.596 296.47 136.358 296.725 136.326C296.762 136.321 296.799 136.321 296.84 136.326C297.274 136.326 298.499 136.459 299.034 136.509C299.852 136.605 300.45 137.323 300.396 138.147C300.231 139.263 299.852 140.338 299.276 141.312C298.051 143.718 296.104 146.738 294.705 148.869L293.453 150.777C293.453 150.777 293.087 151.22 293.636 151.22H298.769C299.034 151.179 299.267 151.015 299.395 150.777C299.459 150.694 299.98 149.889 300.647 148.865L303.865 143.943C303.988 143.732 304.207 143.595 304.45 143.577C305.259 143.577 304.267 145.63 307.26 145.63C307.905 145.557 308.545 145.415 309.157 145.2C309.381 145.2 309.404 145.393 309.404 145.557C309.198 146.248 309.043 146.953 308.933 147.666V148.146C308.933 149.555 309.272 151.82 311.676 151.82C316.406 151.82 322.297 145.813 322.576 145.772C322.855 145.731 322.809 145.823 322.809 146.01C322.809 146.198 322.142 148.604 315.218 157.021C308.293 165.433 304.902 168.745 304.902 170.561C304.843 171.874 305.844 172.99 307.151 173.073C307.855 173.073 310.889 172.913 318.088 161.193C323.225 152.835 325.652 147.671 328.376 143.517C329.501 141.747 330.785 140.077 332.215 138.536C334.322 136.427 334.907 135.343 334.907 134.848C334.981 134.208 334.523 133.627 333.884 133.554C333.829 133.549 333.774 133.545 333.719 133.545L333.733 133.531ZM320.949 136.852C321.095 136.852 321.306 136.971 321.306 137.154C321.306 138.394 318.074 141.326 317.046 141.326C316.827 141.34 316.635 141.166 316.625 140.946C316.625 140.942 316.625 140.937 316.625 140.933C316.653 139.995 319.889 136.852 320.977 136.852H320.949ZM235.545 168.937C234.992 169.011 234.484 168.617 234.411 168.064C234.398 167.972 234.402 167.876 234.411 167.785C234.411 165.374 242.775 159.057 243.772 159.047C244.023 159.047 244.096 159.148 244.096 159.349C244.105 161.275 237.995 168.937 235.545 168.937ZM272.671 145.763C271.734 146.559 270.824 147.172 270.335 147.172C269.435 147.172 269.161 146.678 269.129 146.216C269.106 145.772 269.179 145.329 269.353 144.921C269.796 143.92 270.386 142.991 271.103 142.163C273.329 139.46 276.725 136.802 277.589 136.783C278.124 136.783 278.343 136.994 278.361 137.227C278.439 138.179 277.077 138.847 276.254 139.455C275.272 140.159 274.947 140.393 275.048 140.997C275.102 141.326 275.582 141.413 275.637 141.994C275.637 142.223 275.573 142.451 275.454 142.648C274.705 143.833 273.763 144.885 272.671 145.763ZM283.128 127.044C283.087 126.079 283.832 125.26 284.796 125.215C284.879 125.215 284.956 125.215 285.039 125.219C290.345 125.219 292.969 132.763 292.969 133.238C292.969 133.476 292.827 133.613 292.443 133.613C290.532 133.613 283.128 130.731 283.128 127.044ZM286.643 146.792C286.113 146.861 285.624 146.49 285.555 145.955C285.551 145.91 285.546 145.859 285.546 145.813C285.679 144.743 286.085 143.728 286.734 142.868C287.566 141.504 288.627 140.297 289.87 139.295C291.008 138.59 291.625 137.932 291.62 137.543C291.616 137.154 290.798 136.637 290.715 136.262C290.633 135.887 290.976 135.558 291.762 135.782C292.895 136.065 293.718 136.097 293.746 136.934C293.746 137.639 293.042 140.141 291.771 142.465C290.5 144.784 288.755 146.792 286.648 146.792H286.643Z"/>
<path fill="#810055" d="M336.708 127.653C335.634 127.653 333.243 130.073 333.243 131.253C333.243 132.131 334.587 132.735 335.03 132.735C335.734 132.735 337.997 131.253 337.997 129.217C338.047 128.435 337.485 127.749 336.712 127.648L336.708 127.653Z"/>
</svg>