<svg width="545" height="222" viewBox="0 0 545 222" fill="none" xmlns="http://www.w3.org/2000/svg">
<path d="M521.027 68.8041C516.129 68.8041 511.771 67.7226 507.954 65.5595C504.2 63.3965 501.305 60.4064 499.27 56.5892C497.234 52.7085 496.216 48.3824 496.216 43.6109C496.216 38.7759 497.266 34.4498 499.365 30.6326C501.464 26.8155 504.391 23.8254 508.144 21.6624C511.898 19.4357 516.097 18.3224 520.741 18.3224C525.258 18.3224 529.266 19.3721 532.765 21.4715C536.328 23.5709 539.095 26.4974 541.067 30.2509C543.039 34.0045 544.026 38.2669 544.026 43.0384V45.8058H505.472C505.727 50.0683 507.317 53.6309 510.244 56.4938C513.17 59.293 516.733 60.6927 520.932 60.6927C524.113 60.6927 526.944 59.9292 529.425 58.4024C531.906 56.8119 533.878 54.617 535.342 51.8178L543.358 55.2532C541.258 59.6429 538.268 63.0147 534.387 65.3687C530.507 67.6589 526.053 68.8041 521.027 68.8041ZM534.769 39.1258C534.26 35.3086 532.733 32.2231 530.188 29.8692C527.644 27.5153 524.495 26.3384 520.741 26.3384C516.86 26.3384 513.52 27.5471 510.721 29.9646C507.985 32.3822 506.299 35.4359 505.663 39.1258H534.769Z" fill="#810055"/>
<path d="M415.377 19.2766H424.92V23.9526C428.546 20.1991 433.095 18.3224 438.566 18.3224C441.811 18.3224 444.737 19.054 447.346 20.5172C449.954 21.9168 452.022 23.889 453.548 26.4338C457.62 21.0262 463.091 18.3224 469.962 18.3224C473.525 18.3224 476.674 19.1176 479.41 20.7081C482.209 22.2985 484.372 24.557 485.899 27.4835C487.426 30.3464 488.189 33.6227 488.189 37.3126V67.8498H478.646V38.9349C478.646 35.1814 477.628 32.1913 475.592 29.9646C473.62 27.738 470.916 26.6246 467.481 26.6246C462.71 26.6246 458.924 28.8195 456.125 33.2092C456.379 34.9905 456.507 36.3584 456.507 37.3126V67.8498H447.059V38.9349C447.059 35.1814 446.041 32.1913 444.006 29.9646C441.97 27.738 439.266 26.6246 435.894 26.6246C431.25 26.6246 427.592 28.5968 424.92 32.5412V67.8498H415.377V19.2766Z" fill="#810055"/>
<path d="M381.81 68.8041C377.166 68.8041 372.903 67.6907 369.023 65.4641C365.206 63.2374 362.152 60.2155 359.862 56.3984C357.635 52.5176 356.521 48.2551 356.521 43.6109C356.521 38.9667 357.635 34.7361 359.862 30.9189C362.152 27.0382 365.206 23.9845 369.023 21.7578C372.903 19.4675 377.166 18.3224 381.81 18.3224C386.454 18.3224 390.685 19.4675 394.502 21.7578C398.383 23.9845 401.437 27.0382 403.663 30.9189C405.954 34.7361 407.099 38.9667 407.099 43.6109C407.099 48.2551 405.954 52.5176 403.663 56.3984C401.437 60.2155 398.383 63.2374 394.502 65.4641C390.685 67.6907 386.454 68.8041 381.81 68.8041ZM365.874 43.6109C365.874 46.7283 366.573 49.5593 367.973 52.1041C369.436 54.6488 371.377 56.6847 373.794 58.2115C376.212 59.6747 378.884 60.4064 381.81 60.4064C384.737 60.4064 387.409 59.6747 389.826 58.2115C392.244 56.6847 394.152 54.6488 395.552 52.1041C397.015 49.5593 397.747 46.7283 397.747 43.6109C397.747 40.4936 397.015 37.6625 395.552 35.1178C394.152 32.5094 392.244 30.4736 389.826 29.0104C387.409 27.4835 384.737 26.7201 381.81 26.7201C378.884 26.7201 376.212 27.4835 373.794 29.0104C371.377 30.4736 369.436 32.5094 367.973 35.1178C366.573 37.6625 365.874 40.4936 365.874 43.6109Z" fill="#810055"/>
<path d="M291.458 1.04989H301.478V29.6785H336.977V1.04989H346.997V67.8499H336.977V38.7442H301.478V67.8499H291.458V1.04989Z" fill="#810055"/>
<path d="M253.844 68.6137C249.772 68.6137 246.559 67.3095 244.205 64.7012C241.851 62.0292 240.674 58.2756 240.674 53.4406V27.2931H230.368V19.2772H240.674V6.87143L250.122 4.58114V19.2772H264.436V27.2931H250.122V52.868C250.122 57.7031 251.967 60.1206 255.657 60.1206C256.866 60.1206 257.915 59.9933 258.806 59.7389C259.697 59.4208 260.587 58.9118 261.478 58.212L264.627 65.0829C261.701 67.4368 258.106 68.6137 253.844 68.6137Z" fill="#810055"/>
<path d="M194.047 19.2766H203.59V24.4298C204.926 22.5212 206.612 21.0262 208.647 19.9446C210.683 18.8631 212.878 18.3224 215.232 18.3224C219.049 18.3224 222.103 19.6265 224.393 22.2349C226.747 24.8433 228.147 28.565 228.592 33.4001L219.526 35.4041C218.763 29.5511 216.314 26.6246 212.178 26.6246C210.333 26.6246 208.647 27.1654 207.121 28.2469C205.657 29.3285 204.48 30.8871 203.59 32.9229V67.8498H194.047V19.2766Z" fill="#810055"/>
<path d="M158.227 68.8041C153.201 68.8041 149.13 67.5317 146.012 64.9869C142.959 62.3786 141.432 58.9113 141.432 54.5852C141.432 45.9966 147.984 41.1298 161.09 39.9846C166.498 39.6029 170.951 38.5532 174.45 36.8355C174.323 33.6545 173.305 31.1734 171.396 29.3921C169.551 27.6107 166.911 26.7201 163.476 26.7201C160.295 26.7201 157.623 27.5153 155.46 29.1058C153.297 30.6326 151.865 32.7957 151.165 35.5949L142.481 33.4001C143.563 28.6923 145.98 25.0024 149.734 22.3304C153.487 19.6584 158.132 18.3224 163.667 18.3224C169.901 18.3224 174.8 19.9764 178.363 23.2846C181.989 26.5292 183.802 30.9825 183.802 36.6446V67.8498H174.45V61.4561C172.796 63.7464 170.506 65.5595 167.579 66.8955C164.716 68.1679 161.599 68.8041 158.227 68.8041ZM150.688 54.5852C150.688 56.9391 151.547 58.7205 153.265 59.9292C155.046 61.0744 157.432 61.6469 160.422 61.6469C164.43 61.6469 167.77 60.5018 170.442 58.2115C173.114 55.8576 174.45 52.8993 174.45 49.3366V43.5155C172.859 44.2789 171.11 44.8833 169.201 45.3286C167.356 45.774 165.034 46.1557 162.235 46.4738C158.163 46.9191 155.205 47.8098 153.36 49.1458C151.579 50.4182 150.688 52.2313 150.688 54.5852Z" fill="#810055"/>
<path d="M60.6885 19.2766H70.2314V23.9526C73.8576 20.1991 78.4064 18.3224 83.8776 18.3224C87.1222 18.3224 90.0487 19.054 92.6571 20.5172C95.2655 21.9168 97.3331 23.889 98.8599 26.4338C102.932 21.0262 108.403 18.3224 115.274 18.3224C118.836 18.3224 121.985 19.1176 124.721 20.7081C127.52 22.2985 129.683 24.557 131.21 27.4835C132.737 30.3464 133.501 33.6227 133.501 37.3126V67.8498H123.958V38.9349C123.958 35.1814 122.94 32.1913 120.904 29.9646C118.932 27.738 116.228 26.6246 112.793 26.6246C108.021 26.6246 104.236 28.8195 101.437 33.2092C101.691 34.9905 101.818 36.3584 101.818 37.3126V67.8498H92.3708V38.9349C92.3708 35.1814 91.3529 32.1913 89.3171 29.9646C87.2813 27.738 84.5775 26.6246 81.2056 26.6246C76.5614 26.6246 72.9034 28.5968 70.2314 32.5412V67.8498H60.6885V19.2766Z" fill="#810055"/>
<path d="M27.6743 68.8995C20.4853 68.8995 14.4097 67.2454 9.44744 63.9372C4.48515 60.5654 1.33601 56.0167 9.6863e-06 50.291L9.73373 48.0007C12.024 56.1439 17.9406 60.2155 27.4834 60.2155C32.3821 60.2155 36.1993 59.1976 38.9349 57.1618C41.7341 55.0624 43.1337 52.1995 43.1337 48.5732C43.1337 45.8376 42.1795 43.77 40.2709 42.3704C38.4259 40.9071 35.1495 39.7302 30.4417 38.8395L20.9943 37.1218C14.8233 35.9767 10.2109 33.9727 7.15716 31.1098C4.16706 28.1833 2.67201 24.3662 2.67201 19.6584C2.67201 15.7776 3.68991 12.374 5.72573 9.44751C7.76154 6.45742 10.6244 4.13532 14.3143 2.48123C18.0042 0.827132 22.2349 8.48153e-05 27.0063 8.48153e-05C33.6863 8.48153e-05 39.2848 1.49513 43.8017 4.48523C48.3187 7.47532 51.277 11.706 52.6766 17.1772L43.2292 19.4675C40.8753 12.2149 35.3722 8.58866 26.72 8.58866C22.2667 8.58866 18.7676 9.51113 16.2229 11.3561C13.6781 13.201 12.4057 15.8412 12.4057 19.2767C12.4057 21.8214 13.2328 23.7618 14.8869 25.0978C16.541 26.4338 19.3402 27.4835 23.2846 28.247L32.4457 29.7738C39.6347 31.0462 44.8833 33.1456 48.1915 36.0721C51.4996 38.9986 53.1537 43.0066 53.1537 48.0961C53.1537 52.2313 52.104 55.8894 50.0046 59.0704C47.9052 62.1877 44.9151 64.6052 41.0343 66.323C37.2172 68.0407 32.7638 68.8995 27.6743 68.8995Z" fill="#810055"/>
<path d="M526.067 153.255C524.74 153.255 520.286 155.445 514.679 161.533C509.072 167.621 502.392 175.78 496.303 175.78C494.866 175.962 493.555 174.942 493.373 173.503C493.35 173.313 493.35 173.123 493.366 172.934C493.366 171.89 494.179 170.917 495.798 170.498C501.531 168.799 510.518 161.319 510.518 156.235C510.699 154.907 509.767 153.682 508.441 153.5C508.322 153.484 508.204 153.476 508.093 153.476C505.661 153.476 498.696 154.63 490.073 164.956C489.425 165.913 488.43 166.593 487.301 166.854C486.487 166.854 485.54 165.336 485.54 162.292L485.54 161.367C485.808 157.342 487.782 155.698 487.782 154.385C487.782 153.476 487.403 153.168 486.337 153.168C483.905 153.168 479.183 158.971 478.338 158.971C477.493 158.971 476.845 156.307 476.056 155.326C474.911 153.808 473.347 153.421 468.893 153.421C466.658 153.421 465.387 153.618 463.381 153.618C461.107 153.618 460.586 153.524 460.159 152.527C459.733 151.531 453.115 133.861 437.969 133.861C434.589 133.861 431.035 135.347 431.035 139.941C431.035 144.534 433.768 150.748 445.234 154.528C445.526 154.623 445.803 154.662 445.803 154.891C445.803 155.382 440.385 162.695 435.505 163.557C435.039 163.62 434.613 163.288 434.55 162.821C434.542 162.758 434.542 162.703 434.55 162.64C434.968 161.24 435.221 159.793 435.316 158.339C435.316 156.006 434.597 152.733 430.19 152.733C425.784 152.733 421.038 154.694 408.695 166.632L407.345 167.937C406.516 168.727 405.607 169.447 404.636 170.064C403.831 170.664 402.867 171.004 401.864 171.036C401.635 171.036 401.485 170.783 402.006 170.024L402.464 169.376C403.001 168.625 403.933 167.336 405.015 165.849C407.447 162.466 410.654 158.157 411.499 157.192C412.873 155.627 413.583 154.86 413.583 154.338C413.583 153.816 412.723 153.247 411.68 153.247C408.885 153.508 406.263 154.694 404.225 156.631C403.207 157.627 400.411 160.544 396.937 163.928C396.029 164.806 395.057 165.715 394.062 166.624C388.424 171.819 381.917 177.021 378.363 177.021C376.942 177.021 375.607 176.072 375.607 173.787C375.607 172.277 377.597 167.383 381.53 161.833C382.027 161.129 382.564 160.41 383.117 159.69C384.941 157.358 386.955 155.168 389.127 153.16C398.098 144.882 408.553 140.842 414.957 140.842C417.113 140.897 419.253 141.095 421.378 141.451C421.607 141.53 421.859 141.419 421.962 141.198C422.159 140.866 427 132.264 427 132.264C427 132.264 427 132.018 426.913 131.987C426.029 131.71 425.097 131.576 424.165 131.599C416.876 131.599 401.09 135.244 385.233 146.764C381.222 149.65 377.447 152.852 373.941 156.33C373.42 156.844 372.93 157.35 372.456 157.864C365.483 165.28 362.269 171.993 362.269 176.768C362.269 182.848 367.955 183.615 370.924 183.615C378.782 183.615 382.264 179.97 383.812 179.97C385.36 179.97 382.888 183.615 380.559 185.125C361.101 196.929 345.109 207.073 345.109 216.442C345.109 220.688 349.018 220.964 352.003 220.964C354.988 220.964 369.542 219.106 391.819 184.493C392.862 182.864 394.591 181.931 396.226 180.737C397.868 179.543 403.183 175.669 404.241 175.653C405.299 175.637 405.252 176.112 405.213 176.578C404.818 177.891 404.557 179.235 404.447 180.603C404.447 182.437 406.302 184.58 409.303 184.58C416.079 184.58 421.022 179.717 425.089 175.384C426.937 173.179 429.03 171.178 431.32 169.439C432.054 168.917 432.931 168.617 433.831 168.577C434.534 168.577 434.802 168.878 434.802 169.328C434.802 169.399 434.802 169.471 434.802 169.55C434.147 171.993 433.705 174.483 433.476 177.005L433.476 177.227C433.476 180.144 434.431 184.319 441.215 184.319C444.966 184.319 448.393 182.302 451.315 179.369C454.434 176.072 456.961 172.254 458.785 168.087C460.214 165.241 461.107 162.157 461.423 158.995C461.367 158.552 461.683 158.141 462.125 158.086C462.189 158.078 462.252 158.078 462.323 158.086C463.073 158.086 465.189 158.315 466.113 158.402C467.527 158.568 468.561 159.809 468.467 161.232C468.182 163.161 467.527 165.019 466.532 166.703C464.416 170.862 461.052 176.08 458.635 179.765L456.471 183.061C456.471 183.061 455.84 183.828 456.787 183.828L465.655 183.828C466.113 183.757 466.516 183.473 466.737 183.061C466.848 182.919 467.748 181.528 468.901 179.757L474.46 171.249C474.674 170.886 475.053 170.649 475.471 170.617C476.869 170.617 475.155 174.167 480.328 174.167C481.441 174.04 482.547 173.795 483.605 173.424C483.992 173.424 484.031 173.756 484.031 174.04C483.676 175.234 483.408 176.452 483.218 177.685L483.218 178.515C483.218 180.951 483.802 184.864 487.956 184.864C496.129 184.864 506.309 174.483 506.79 174.412C507.272 174.341 507.193 174.499 507.193 174.823C507.193 175.147 506.04 179.306 494.076 193.854C482.113 208.393 476.253 214.117 476.253 217.256C476.15 219.525 477.88 221.454 480.138 221.597C481.354 221.597 486.598 221.32 499.036 201.064C507.912 186.619 512.105 177.693 516.811 170.514C518.754 167.454 520.973 164.569 523.445 161.904C527.085 158.259 528.096 156.386 528.096 155.532C528.222 154.425 527.433 153.421 526.327 153.294C526.232 153.286 526.138 153.278 526.043 153.278L526.067 153.255ZM503.979 158.995C504.232 158.995 504.595 159.2 504.595 159.517C504.595 161.659 499.012 166.727 497.235 166.727C496.856 166.751 496.524 166.45 496.509 166.071C496.509 166.063 496.509 166.055 496.509 166.047C496.556 164.426 502.147 158.995 504.026 158.995L503.979 158.995ZM356.418 214.449C355.462 214.576 354.586 213.896 354.459 212.939C354.436 212.781 354.444 212.615 354.459 212.457C354.459 208.29 368.911 197.372 370.632 197.356C371.066 197.356 371.193 197.53 371.193 197.878C371.209 201.206 360.65 214.449 356.418 214.449ZM420.564 174.396C418.945 175.772 417.374 176.831 416.529 176.831C414.973 176.831 414.499 175.977 414.444 175.179C414.405 174.412 414.531 173.645 414.831 172.941C415.597 171.21 416.616 169.605 417.856 168.174C421.701 163.501 427.569 158.908 429.061 158.876C429.985 158.876 430.364 159.24 430.396 159.643C430.53 161.288 428.177 162.442 426.755 163.493C425.057 164.711 424.497 165.114 424.671 166.158C424.765 166.727 425.594 166.877 425.689 167.881C425.689 168.277 425.579 168.672 425.373 169.012C424.078 171.06 422.452 172.878 420.564 174.396ZM438.632 142.044C438.561 140.375 439.848 138.96 441.515 138.881C441.657 138.881 441.791 138.881 441.933 138.889C451.101 138.889 455.634 151.927 455.634 152.749C455.634 153.16 455.389 153.397 454.726 153.397C451.425 153.397 438.632 148.416 438.632 142.044ZM444.705 176.175C443.789 176.294 442.944 175.653 442.825 174.728C442.818 174.649 442.81 174.562 442.81 174.483C443.039 172.633 443.742 170.878 444.863 169.392C446.3 167.035 448.132 164.948 450.28 163.217C452.246 161.999 453.313 160.861 453.305 160.189C453.297 159.517 451.883 158.623 451.741 157.975C451.599 157.327 452.191 156.757 453.549 157.145C455.508 157.635 456.929 157.69 456.977 159.137C456.977 160.355 455.761 164.679 453.565 168.696C451.37 172.704 448.353 176.175 444.713 176.175L444.705 176.175Z" fill="#810055"/>
<path d="M530.936 142.605C529.13 142.605 525.109 146.886 525.109 148.974C525.109 150.528 527.369 151.597 528.115 151.597C529.299 151.597 533.104 148.974 533.104 145.373C533.189 143.989 532.243 142.775 530.944 142.597L530.936 142.605Z" fill="#810055"/>
<path d="M324.165 173.597C322.66 173.597 321.431 173.283 320.478 172.657L321.677 170.016C322.322 170.404 323.09 170.598 323.981 170.598C324.903 170.598 325.687 170.3 326.332 169.703C326.977 169.136 327.576 168.256 328.129 167.062L329.512 163.974L320.109 141.597H323.889L331.356 159.991L339.422 141.597H343.109L331.586 167.51C330.603 169.688 329.543 171.24 328.406 172.165C327.3 173.119 325.886 173.597 324.165 173.597Z" fill="#810055"/>
<path d="M304.68 163.597C303.355 163.597 302.06 163.376 300.795 162.935C299.56 162.493 298.431 161.861 297.407 161.037V163.244H294.109V132.347L297.452 131.597V143.47C299.38 141.675 301.804 140.777 304.725 140.777C306.834 140.777 308.746 141.278 310.463 142.278C312.209 143.279 313.58 144.662 314.573 146.427C315.597 148.163 316.109 150.076 316.109 152.165C316.109 154.284 315.597 156.226 314.573 157.991C313.58 159.727 312.209 161.096 310.463 162.096C308.716 163.097 306.788 163.597 304.68 163.597ZM297.452 157.682C298.235 158.624 299.244 159.374 300.479 159.933C301.714 160.463 303.024 160.728 304.409 160.728C305.975 160.728 307.391 160.36 308.656 159.624C309.951 158.859 310.959 157.829 311.682 156.535C312.435 155.24 312.812 153.798 312.812 152.209C312.812 150.62 312.435 149.178 311.682 147.884C310.959 146.56 309.951 145.53 308.656 144.794C307.391 144.029 305.975 143.646 304.409 143.646C302.994 143.646 301.669 143.926 300.434 144.485C299.229 145.015 298.235 145.765 297.452 146.736V157.682Z" fill="#810055"/>
</svg>
