<svg width="58" height="36" viewBox="0 0 58 36" fill="none" xmlns="http://www.w3.org/2000/svg">
<path d="M46.8898 25.2265V26.394C46.8898 28.3284 45.4564 29.8966 43.6881 29.8966C41.9199 29.8966 40.4865 28.3284 40.4865 26.394V25.2265M46.8898 25.2265H40.4865M46.8898 25.2265H50.7217C51.1299 25.2265 51.335 25.2265 51.5003 25.1655C51.816 25.049 52.0631 24.7777 52.1696 24.4323C52.2256 24.2507 52.2256 24.0256 52.2256 23.5755C52.2256 23.3785 52.2254 23.2801 52.2113 23.1861C52.1847 23.0087 52.1217 22.8404 52.0259 22.6943C51.9752 22.6172 51.9108 22.5467 51.7839 22.4078L51.3682 21.953C51.234 21.8063 51.1587 21.6073 51.1587 21.3998V17.0537C51.1587 12.54 47.814 8.88097 43.6881 8.88098C39.5623 8.88099 36.2176 12.5401 36.2176 17.0537V21.3998C36.2176 21.6073 36.1421 21.8063 36.008 21.953L35.5923 22.4078C35.465 22.5471 35.4012 22.6171 35.3505 22.6944C35.2546 22.8405 35.1911 23.0087 35.1645 23.1861C35.1504 23.2801 35.1504 23.3785 35.1504 23.5755C35.1504 24.0257 35.1504 24.2507 35.2064 24.4323C35.3129 24.7777 35.5611 25.049 35.8768 25.1655C36.0421 25.2265 36.2464 25.2265 36.6547 25.2265H40.4865" stroke="white" stroke-width="2" stroke-linecap="round" stroke-linejoin="round"/>
<path d="M1 6.9548V28.5396C1 30.6239 1 31.6645 1.67604 32.4606C2.27069 33.1609 3.21887 33.7317 4.38595 34.0885C5.71145 34.4937 7.44752 34.4937 10.9145 34.4937H46.9083C50.3753 34.4937 52.1089 34.4937 53.4343 34.0885C54.6014 33.7317 55.5528 33.1609 56.1474 32.4606C56.8228 31.6653 56.8228 30.6252 56.8228 28.545V6.94868C56.8228 4.86851 56.8228 3.82687 56.1474 3.03157C55.5528 2.33132 54.6014 1.76242 53.4343 1.40562C52.1076 1 50.3731 1 46.8994 1H10.9247C7.45092 1 5.71275 1 4.38595 1.40562C3.21887 1.76242 2.27069 2.33132 1.67604 3.03157C1 3.82765 1 4.87055 1 6.9548Z" stroke="white" stroke-width="2" stroke-linecap="round" stroke-linejoin="round"/>
<path d="M25.8715 33.18C25.8715 29.2809 21.1857 26.12 15.4055 26.12C9.62526 26.12 4.93945 29.2809 4.93945 33.18M15.4055 20.8251C11.552 20.8251 8.42814 17.6642 8.42814 13.7651C8.42814 9.86604 11.552 6.7052 15.4055 6.7052C19.259 6.7052 22.3829 9.86604 22.3829 13.7651C22.3829 17.6642 19.259 20.8251 15.4055 20.8251Z" stroke="white" stroke-width="2" stroke-linecap="round" stroke-linejoin="round"/>
</svg>
